Coordinates
version=1
nRows=16
nColumns=42
inDegrees=yes

Units are S.I. units (second, meters, Newtons, ...)
If the header above contains a line with 'inDegrees', this indicates whether rotational values are in degrees (yes) or radians (no).

endheader
time	pelvis_tilt	pelvis_list	pelvis_rotation	pelvis_tx	pelvis_ty	pelvis_tz	hip_flexion_r	hip_adduction_r	hip_rotation_r	knee_angle_r	knee_adduction_r	knee_angle_r_beta	ankle_angle_r	subtalar_angle_r	mtp_angle_r	hip_flexion_l	hip_adduction_l	hip_rotation_l	knee_angle_l	knee_adduction_l	knee_angle_l_beta	ankle_angle_l	subtalar_angle_l	mtp_angle_l	lumbar_extension	lumbar_bending	lumbar_rotation	arm_flex_r	arm_add_r	arm_rot_r	elbow_flex_r	pro_sup_r	wrist_flex_r	wrist_dev_r	arm_flex_l	arm_add_l	arm_rot_l	elbow_flex_l	pro_sup_l	wrist_flex_l	wrist_dev_l
      1.13000000	      8.70201111	      1.08495348	     -5.69340519	     -0.29509477	      0.98350078	      0.27086328	     10.94039951	     -3.52169944	     -5.25333485	     57.56949167	     -3.41377636	      1.00477718	     14.64871318	     -9.32297795	     -7.59490011	     -4.97658533	      6.15877788	    -21.31994883	     11.53083753	     -4.42714139	      0.20125108	     16.56595073	     28.95362848	     -7.59490011	    -22.45099279	      0.14155000	     -3.35203524	     -7.73696040	    -10.51251440	      7.17550453	     30.58801824	     90.00000001	      0.00000000	      0.00000000	      0.30388608	    -13.16075471	     -4.04539689	     39.89391726	     90.00000001	      0.00000000	      0.00000000
      1.14000000	      8.74608307	      0.90839634	     -5.35677800	     -0.28144462	      0.98359660	      0.27080166	     12.00951633	     -3.09509523	     -5.57039844	     55.06297686	     -3.31785100	      0.96103024	     14.91658657	     -9.33561200	     -7.59301391	     -6.35254283	      6.09054632	    -21.07610003	     10.71146930	     -4.32352320	      0.18695041	     16.97449994	     29.46244624	     -7.59301391	    -22.51697337	      0.46309767	     -3.62298391	     -8.30147765	    -10.24803544	      7.08488181	     30.48706886	     90.00000001	      0.00000000	      0.00000000	      1.00616979	    -13.49022982	     -4.13996276	     40.63525271	     90.00000001	      0.00000000	      0.00000000
      1.15000000	      8.74157478	      0.78068929	     -5.05501585	     -0.26784382	      0.98321345	      0.27078377	     13.04916807	     -2.71511363	     -5.88598239	     52.31050952	     -3.24366207	      0.91299062	     15.06659765	     -9.25177695	     -7.59138662	     -7.58976285	      6.06755870	    -20.89111984	     10.01883449	     -4.29132583	      0.17486165	     17.40118933	     29.86980557	     -7.59138662	    -22.51597990	      0.72353273	     -3.88562454	     -8.81755426	    -10.00308688	      6.98911157	     30.39707243	     90.00000001	      0.00000000	      0.00000000	      1.70130201	    -13.81799620	     -4.22717228	     41.40876755	     90.00000001	      0.00000000	      0.00000000
      1.16000000	      8.91786651	      0.74550565	     -4.75025262	     -0.25407390	      0.98256108	      0.27091329	     13.78081690	     -2.48373415	     -6.38429263	     49.30520639	     -3.25267103	      0.86053819	     15.10676136	     -9.04903361	     -7.58819302	     -9.04823300	      6.08944349	    -20.77264280	      9.33258430	     -4.15433279	      0.16288432	     17.98589807	     30.62627220	     -7.58819302	    -22.69461920	      0.83147435	     -4.22159869	     -9.33104199	     -9.62675053	      6.66305247	     30.26679673	     90.00000001	      0.00000000	      0.00000000	      2.25123280	    -14.22173321	     -4.31627338	     42.52457307	     90.00000001	      0.00000000	      0.00000000
      1.17000000	      8.99987583	      0.70924955	     -4.49307539	     -0.24042835	      0.98147325	      0.27115459	     14.50281250	     -2.21606826	     -6.80020878	     46.01810890	     -3.24508940	      0.80316752	     15.09311836	     -8.70345030	     -7.58611837	    -10.31449669	      6.09198754	    -20.58163402	      8.82394383	     -4.04287433	      0.15400687	     18.61176706	     31.04562413	     -7.58611837	    -22.79229625	      0.93647000	     -4.45853252	     -9.77401105	     -9.30403883	      6.49231524	     30.13906960	     90.00000001	      0.00000000	      0.00000000	      2.92147981	    -14.59128248	     -4.38267306	     43.33623384	     90.00000001	      0.00000000	      0.00000000
      1.18000000	      9.04389026	      0.73720639	     -4.26145846	     -0.22674265	      0.97994498	      0.27147216	     15.17817005	     -2.02115885	     -7.29831755	     42.54182247	     -3.29588656	      0.74249487	     14.99458967	     -8.15768396	     -7.58428609	    -11.49314766	      6.16532939	    -20.40633404	      8.39750199	     -4.00286191	      0.14656406	     19.23126812	     31.37326061	     -7.58428609	    -22.82408682	      0.95450839	     -4.72189662	    -10.20583528	     -8.96611902	      6.33707855	     30.01444629	     90.00000001	      0.00000000	      0.00000000	      3.56171508	    -14.94376411	     -4.43650439	     44.15711006	     90.00000001	      0.00000000	      0.00000000
      1.19000000	      9.17734766	      0.81182774	     -4.05044232	     -0.21298036	      0.97815543	      0.27188063	     15.64481149	     -1.89171277	     -7.93801126	     38.85569511	     -3.41687992	      0.67815981	     14.85073398	     -7.27719820	     -7.58231756	    -12.76571546	      6.26411947	    -20.23254211	      8.00819630	     -3.91512798	      0.13976939	     19.96094613	     31.73921799	     -7.58231756	    -22.95559234	      0.90490108	     -4.98312999	    -10.59419984	     -8.59910233	      6.13538261	     29.86069902	     90.00000001	      0.00000000	      0.00000000	      4.16289089	    -15.32517534	     -4.47995316	     45.05183881	     90.00000001	      0.00000000	      0.00000000
      1.20000000	      9.33770814	      0.98784065	     -3.85650576	     -0.19909070	      0.97597103	      0.27231525	     16.08251913	     -1.93811896	     -9.31213334	     35.13057169	     -3.86437103	      0.61314414	     15.21296498	     -4.67413544	     -7.57622275	    -13.97292960	      6.46438048	    -20.35355268	      7.77837510	     -3.94090363	      0.13575826	     20.73624957	     32.53092758	     -7.57622275	    -23.09794139	      0.72881152	     -5.28731270	    -10.88667600	     -8.07919530	      5.24862216	     29.57664931	     90.00000001	      0.00000000	      0.00000000	      4.59151480	    -15.80455375	     -4.35966409	     46.33304669	     90.00000001	      0.00000000	      0.00000000
      1.21000000	      9.43174876	      1.15475740	     -3.66435712	     -0.18527272	      0.97352295	      0.27281661	     16.40509280	     -1.91477122	    -10.08187154	     31.18230293	     -3.96404816	      0.54423385	     14.98616077	     -3.24627439	     -7.57354888	    -15.11244035	      6.64572152	    -20.16249383	      7.58199058	     -3.93393978	      0.13233070	     21.48572675	     32.69693078	     -7.57354888	    -23.17502611	      0.56810228	     -5.53691506	    -11.24346908	     -7.74641372	      5.04622173	     29.44215663	     90.00000001	      0.00000000	      0.00000000	      5.29176979	    -16.16082322	     -4.39621819	     46.98037570	     90.00000001	      0.00000000	      0.00000000
      1.22000000	      9.58448645	      1.35629753	     -3.49582508	     -0.17124806	      0.97082363	      0.27349014	     16.65659616	     -2.00072642	    -11.61843847	     27.27263823	     -4.23654859	      0.47599733	     15.23531133	      0.29935055	     -7.56782760	    -16.30957227	      6.79008868	    -20.12084015	      7.46762647	     -3.81241074	      0.13033467	     22.30746567	     33.19979264	     -7.56782760	    -23.29177722	      0.33234235	     -5.84318512	    -11.51816714	     -7.22409259	      4.44594500	     29.21417791	     90.00000001	      0.00000000	      0.00000000	      5.71633056	    -16.54870676	     -4.31701245	     47.93739774	     90.00000001	      0.00000000	      0.00000000
      1.23000000	      9.71798531	      1.55337856	     -3.34295420	     -0.15733619	      0.96797880	      0.27413823	     16.73724534	     -2.00688459	    -12.33535803	     23.22578751	     -4.16281242	      0.40536646	     14.80102542	      2.15562394	     -7.56581256	    -17.44606628	      6.98394702	    -19.99758354	      7.38197723	     -3.84029254	      0.12883981	     23.11347298	     33.28689624	     -7.56581256	    -23.42373754	      0.11326546	     -6.06943258	    -11.75644319	     -6.87550343	      4.32846133	     29.10802386	     90.00000001	      0.00000000	      0.00000000	      6.44715640	    -16.85943534	     -4.35247558	     48.55863889	     90.00000001	      0.00000000	      0.00000000
      1.24000000	      9.82006350	      1.84555773	     -3.11375976	     -0.14321972	      0.96481701	      0.27474613	     16.98254051	     -2.26410806	    -14.20151195	     19.59101731	     -4.23804690	      0.34192776	     15.09686840	      6.65106519	     -7.56012397	    -18.49008038	      7.19231960	    -19.91571925	      7.47159067	     -3.81410884	      0.13040386	     23.86229977	     33.71115197	     -7.56012397	    -23.48252657	     -0.19270536	     -6.45607683	    -11.97990791	     -6.40006574	      3.72338245	     28.91452379	     90.00000001	      0.00000000	      0.00000000	      6.89265335	    -17.28296506	     -4.25968874	     49.44651021	     90.00000001	      0.00000000	      0.00000000
      1.25000000	      9.87597909	      2.08107538	     -2.92992067	     -0.12915436	      0.96160804	      0.27540334	     17.00402684	     -2.33811876	    -14.67795361	     15.81059513	     -3.90334835	      0.27594694	     14.45248544	      8.57146901	     -7.55866366	    -19.48478812	      7.37345452	    -19.73711824	      7.55723442	     -3.83448364	      0.13189862	     24.60893313	     33.72557637	     -7.55866366	    -23.51134164	     -0.43890335	     -6.75460524	    -12.20082047	     -6.07503596	      3.65606132	     28.84664802	     90.00000001	      0.00000000	      0.00000000	      7.49496933	    -17.54681908	     -4.29631033	     49.90781292	     90.00000001	      0.00000000	      0.00000000
      1.26000000	      9.99031831	      2.37588894	     -2.69661394	     -0.11487663	      0.95825774	      0.27597935	     17.24053831	     -2.67355922	    -16.60566136	     12.86770274	     -3.71049277	      0.22458378	     14.61877216	     13.15854115	     -7.55293243	    -20.46925664	      7.55872862	    -19.78957107	      7.80306038	     -3.88659397	      0.13618910	     25.32009852	     34.13673822	     -7.55293243	    -23.59644808	     -0.73450662	     -7.12516676	    -12.33959786	     -5.65113596	      3.02415598	     28.69178158	     90.00000001	      0.00000000	      0.00000000	      7.93465782	    -17.86899688	     -4.18229467	     50.68002300	     90.00000001	      0.00000000	      0.00000000
      1.27000000	      9.94874603	      2.67465779	     -2.41410962	     -0.10068305	      0.95485058	      0.27653188	     17.40104644	     -2.90694037	    -16.96800091	      9.98344709	     -3.21690703	      0.17424402	     14.06435177	     14.58728718	     -7.55204214	    -21.26501613	      7.75388111	    -19.50212136	      8.09932911	     -3.99661180	      0.14135996	     25.86808432	     34.09552140	     -7.55204214	    -23.53383657	     -1.01505944	     -7.52921234	    -12.54693652	     -5.32431077	      3.01692825	     28.66719608	     90.00000001	      0.00000000	      0.00000000	      8.49301112	    -18.08645814	     -4.22648351	     51.01544466	     90.00000001	      0.00000000	      0.00000000
      1.28000000	     10.09493817	      2.83605086	     -2.20986354	     -0.08610870	      0.95161155	      0.27723056	     17.58936381	     -3.07416128	    -18.45255204	      7.97363107	     -2.95009875	      0.13916612	     13.99077348	     18.57642861	     -7.54751543	    -22.29791690	      7.73186396	    -19.69750060	      8.39076496	     -3.96972801	      0.14644648	     26.52620834	     34.45639940	     -7.54751543	    -23.64215511	     -1.16624568	     -7.81319759	    -12.64614545	     -4.96307285	      2.52889239	     28.51827032	     90.00000001	      0.00000000	      0.00000000	      8.81958655	    -18.33275727	     -4.15370159	     51.72846882	     90.00000001	      0.00000000	      0.00000000
